<?xml version="1.0" encoding="UTF-8"?>
<svg version="1.1" xmlns="http://www.w3.org/2000/svg" width="512" height="512">
<path d="M0 0 C0.99422974 0.00215515 1.98845947 0.0043103 3.01281738 0.00653076 C17.48109955 0.05686686 31.66189071 0.35398296 45.875 3.3125 C46.85130371 3.51117676 47.82760742 3.70985352 48.83349609 3.91455078 C97.21339984 14.03634541 141.2005519 35.95291013 176.875 70.3125 C177.8640332 71.26068604 177.8640332 71.26068604 178.87304688 72.22802734 C188.36130305 81.37247479 197.1012044 90.66984009 204.875 101.3125 C205.73306152 102.46355017 206.59113451 103.61459177 207.44921875 104.765625 C213.48736829 112.95680614 218.84595521 121.47054105 223.875 130.3125 C224.23948242 130.94430176 224.60396484 131.57610352 224.97949219 132.22705078 C246.4740329 169.78084014 256.35126533 212.44304389 256.1875 255.4375 C256.18476578 256.9278476 256.18476578 256.9278476 256.18197632 258.44830322 C256.13719978 272.942192 255.67610213 287.05386097 252.875 301.3125 C252.71402832 302.20807617 252.55305664 303.10365234 252.38720703 304.02636719 C244.49797508 347.63313051 224.80850867 388.77106217 195.875 422.3125 C195.24078125 423.05757813 194.6065625 423.80265625 193.953125 424.5703125 C182.14198485 438.07529833 169.39139772 450.74668743 154.875 461.3125 C153.72505169 462.16899066 152.57531411 463.02576433 151.42578125 463.8828125 C143.23410474 469.9234414 134.71854922 475.28255071 125.875 480.3125 C125.24319824 480.67698242 124.61139648 481.04146484 123.96044922 481.41699219 C97.93166464 496.31500327 68.51361377 505.96041257 38.875 510.3125 C37.67254639 510.48910156 36.47009277 510.66570312 35.23120117 510.84765625 C23.51493596 512.45161689 11.87584274 512.71324553 0.0625 512.6875 C-0.92433777 512.68662384 -1.91117554 512.68574768 -2.92791748 512.68484497 C-67.88219852 512.49532667 -130.29571624 487.41579016 -177.125 442.3125 C-177.78435547 441.68037598 -178.44371094 441.04825195 -179.12304688 440.39697266 C-188.61130305 431.25252521 -197.3512044 421.95515991 -205.125 411.3125 C-205.98306152 410.16144983 -206.84113451 409.01040823 -207.69921875 407.859375 C-213.73736829 399.66819386 -219.09595521 391.15445895 -224.125 382.3125 C-224.48948242 381.68069824 -224.85396484 381.04889648 -225.22949219 380.39794922 C-240.15973018 354.31285999 -249.63885054 324.97664886 -254.125 295.3125 C-254.38990234 293.62882324 -254.38990234 293.62882324 -254.66015625 291.91113281 C-256.3170586 280.29802257 -256.52373513 268.78070055 -256.5 257.0625 C-256.49945618 256.05048523 -256.49891235 255.03847046 -256.49835205 253.99578857 C-256.4576051 237.46132605 -255.53386907 221.54185136 -252.125 205.3125 C-251.91601074 204.29720215 -251.70702148 203.2819043 -251.49169922 202.23583984 C-242.71380189 160.92383315 -223.71113066 122.2919774 -196.125 90.3125 C-195.49078125 89.56742187 -194.8565625 88.82234375 -194.203125 88.0546875 C-182.39198485 74.54970167 -169.64139772 61.87831257 -155.125 51.3125 C-153.97505169 50.45600934 -152.82531411 49.59923567 -151.67578125 48.7421875 C-143.48410474 42.7015586 -134.96854922 37.34244929 -126.125 32.3125 C-125.49319824 31.94801758 -124.86139648 31.58353516 -124.21044922 31.20800781 C-98.17975097 16.30890142 -68.76448404 6.66904478 -39.125 2.3125 C-37.32675781 2.04651001 -37.32675781 2.04651001 -35.4921875 1.77514648 C-23.66616559 0.14661384 -11.92341476 -0.04652724 0 0 Z M34.53515625 181.95703125 C28.18844981 189.88770204 19.98366224 201.98496167 18.875 212.3125 C19.89745332 214.64037996 19.89745332 214.64037996 21.875 216.3125 C24.18862605 216.81417644 24.18862605 216.81417644 26.76953125 216.59765625 C27.72537109 216.57123047 28.68121094 216.54480469 29.66601562 216.51757812 C30.66310547 216.47052734 31.66019531 216.42347656 32.6875 216.375 C45.06224318 215.83274507 45.06224318 215.83274507 49.875 219.3125 C52.63462503 223.28795983 52.53054205 227.65746772 51.875 232.3125 C49.00838194 241.77008874 44.41196137 250.1524127 39.3125 258.5625 C38.60445314 259.74362894 37.8964458 260.92478157 37.18847656 262.10595703 C30.42374743 273.31814188 23.14446385 284.14956078 14.875 294.3125 C13.00460815 294.11701965 13.00460815 294.11701965 10.875 293.3125 C9.72366333 291.23124695 9.72366333 291.23124695 8.80126953 288.44018555 C8.44990936 287.39159866 8.09854919 286.34301178 7.73654175 285.26264954 C7.3723111 284.10734238 7.00808044 282.95203522 6.6328125 281.76171875 C6.24336456 280.5579509 5.85391663 279.35418304 5.45266724 278.11393738 C1.08440344 264.30295901 -2.3599526 250.26573266 -5.75195312 236.18951416 C-11.45643072 212.49441009 -11.45643072 212.49441009 -17.7421875 188.94921875 C-17.99541779 188.01068558 -18.24864807 187.0721524 -18.509552 186.10517883 C-21.11482446 177.08211888 -24.77050023 168.90610328 -33.1953125 164.15234375 C-39.9041219 161.2325178 -47.27991007 161.3304758 -54.0625 163.9375 C-55.7636303 164.69943705 -57.45120143 165.4922618 -59.125 166.3125 C-59.97707031 166.725 -60.82914062 167.1375 -61.70703125 167.5625 C-74.92536308 174.37487599 -86.57673935 184.03321131 -98.125 193.3125 C-99.05957031 194.06273437 -99.99414062 194.81296875 -100.95703125 195.5859375 C-107.88939919 201.20897094 -114.69595463 206.98575693 -121.41601562 212.86083984 C-122.60692499 213.87243228 -123.82735128 214.84985167 -125.06835938 215.79931641 C-128.13456571 218.20211571 -129.8734934 219.65282444 -131.28515625 223.35546875 C-131.07900353 227.1617519 -129.97242353 228.70024934 -127.5625 231.625 C-126.53962891 232.91857422 -126.53962891 232.91857422 -125.49609375 234.23828125 C-122.52299931 236.83912663 -121.08101599 237.41955086 -117.125 237.3125 C-114.46934761 236.06576961 -112.21646879 234.37982037 -109.875 232.625 C-96.35758032 223.08163198 -96.35758032 223.08163198 -88.6875 223.5 C-86.82858993 224.08941051 -84.97504223 224.69581926 -83.125 225.3125 C-82.08276367 227.60131836 -82.08276367 227.60131836 -81.125 230.3125 C-80.36178688 231.7781953 -79.58650995 233.23765683 -78.80078125 234.69140625 C-75.48345562 241.27139634 -73.43533976 248.22178224 -71.3125 255.25 C-70.87433683 256.67453816 -70.43544108 258.09885117 -69.99584961 259.52294922 C-67.96781964 266.11728527 -65.99335867 272.72513584 -64.0859375 279.35546875 C-55.91648362 307.74708727 -47.04001974 338.37188672 -29.125 362.3125 C-28.68800781 362.93125 -28.25101562 363.55 -27.80078125 364.1875 C-23.98796564 369.2543646 -19.51188355 372.74953276 -13.2109375 373.796875 C6.19753864 374.64688125 21.93309408 362.36114838 35.875 350.3125 C39.5035588 346.93776673 43.01190169 343.45664963 46.5 339.9375 C47.81484375 338.63425781 47.81484375 338.63425781 49.15625 337.3046875 C55.15753529 331.28559424 60.58962119 324.96371975 65.875 318.3125 C66.90033807 317.05825352 67.9274186 315.80542735 68.95703125 314.5546875 C76.37693114 305.43964423 83.22003915 295.99664734 89.875 286.3125 C90.30522461 285.69439453 90.73544922 285.07628906 91.17871094 284.43945312 C110.71757736 256.34375292 128.19037478 225.66882037 123.33203125 190.3671875 C121.3215266 180.79229795 117.7850618 171.57917674 109.61328125 165.6796875 C84.79807465 149.94692252 52.57310556 161.57023379 34.53515625 181.95703125 Z " fill="#000000" transform="translate(256.125,-0.3125)"/>
</svg>
